<?xml version="1.0" encoding="UTF-8" standalone="no"?>
<!DOCTYPE svg PUBLIC "-//W3C//DTD SVG 1.1//EN"
 "http://www.w3.org/Graphics/SVG/1.1/DTD/svg11.dtd">
<!-- Generated by graphviz version 2.40.1 (20161225.0304)
 -->
<!-- Title: orchestration_session_issue Pages: 1 -->
<svg width="1255pt" height="1920pt"
 viewBox="0.00 0.00 1254.50 1920.00" xmlns="http://www.w3.org/2000/svg" xmlns:xlink="http://www.w3.org/1999/xlink">
<g id="graph0" class="graph" transform="scale(1 1) rotate(0) translate(4 1916)">
<title>orchestration_session_issue</title>
<polygon fill="#ffffff" stroke="transparent" points="-4,4 -4,-1916 1250.5,-1916 1250.5,4 -4,4"/>
<!-- orchestration_session_issue -->
<g id="node1" class="node">
<title>orchestration_session_issue</title>
<polygon fill="#efefef" stroke="transparent" points="46.5,-1758.5 46.5,-1793.5 359.5,-1793.5 359.5,-1758.5 46.5,-1758.5"/>
<polygon fill="none" stroke="#000000" points="46.5,-1758.5 46.5,-1793.5 359.5,-1793.5 359.5,-1758.5 46.5,-1758.5"/>
<text text-anchor="start" x="53.3085" y="-1771.3" font-family="Arial Bold" font-size="18.00" fill="#000000">orchestration_session_issue</text>
<text text-anchor="start" x="280.3605" y="-1771.3" font-family="Arial" font-size="14.00" fill="#000000">    </text>
<text text-anchor="start" x="314.5653" y="-1771.3" font-family="Arial" font-size="14.00" fill="#666666">[table]</text>
<polygon fill="none" stroke="#000000" points="46.5,-1728.5 46.5,-1758.5 359.5,-1758.5 359.5,-1728.5 46.5,-1728.5"/>
<text text-anchor="start" x="53.5" y="-1739.9" font-family="Arial" font-size="14.00" fill="#000000">orchestration_session_issue_id </text>
<text text-anchor="start" x="252.6584" y="-1739.9" font-family="Arial" font-size="14.00" fill="#666666">[UUID]</text>
<polygon fill="none" stroke="#000000" points="46.5,-1698.5 46.5,-1728.5 359.5,-1728.5 359.5,-1698.5 46.5,-1698.5"/>
<text text-anchor="start" x="53.5" y="-1709.9" font-family="Arial" font-size="14.00" fill="#000000">session_id </text>
<text text-anchor="start" x="123.5168" y="-1709.9" font-family="Arial" font-size="14.00" fill="#666666">[VARCHAR]</text>
<polygon fill="none" stroke="#000000" points="46.5,-1668.5 46.5,-1698.5 359.5,-1698.5 359.5,-1668.5 46.5,-1668.5"/>
<text text-anchor="start" x="53.5" y="-1679.9" font-family="Arial" font-size="14.00" fill="#000000">session_entry_id </text>
<text text-anchor="start" x="162.4158" y="-1679.9" font-family="Arial" font-size="14.00" fill="#666666">[VARCHAR]</text>
<polygon fill="none" stroke="#000000" points="46.5,-1638.5 46.5,-1668.5 359.5,-1668.5 359.5,-1638.5 46.5,-1638.5"/>
<text text-anchor="start" x="53.5" y="-1649.9" font-family="Arial" font-size="14.00" fill="#000000">issue_type </text>
<text text-anchor="start" x="124.3008" y="-1649.9" font-family="Arial" font-size="14.00" fill="#666666">[TEXT]</text>
<polygon fill="none" stroke="#000000" points="46.5,-1608.5 46.5,-1638.5 359.5,-1638.5 359.5,-1608.5 46.5,-1608.5"/>
<text text-anchor="start" x="53.5" y="-1619.9" font-family="Arial" font-size="14.00" fill="#000000">issue_message </text>
<text text-anchor="start" x="154.636" y="-1619.9" font-family="Arial" font-size="14.00" fill="#666666">[TEXT]</text>
<polygon fill="none" stroke="#000000" points="46.5,-1578.5 46.5,-1608.5 359.5,-1608.5 359.5,-1578.5 46.5,-1578.5"/>
<text text-anchor="start" x="53.5" y="-1589.9" font-family="Arial" font-size="14.00" fill="#000000">issue_row </text>
<text text-anchor="start" x="120.3948" y="-1589.9" font-family="Arial" font-size="14.00" fill="#666666">[INTEGER]</text>
<polygon fill="none" stroke="#000000" points="46.5,-1548.5 46.5,-1578.5 359.5,-1578.5 359.5,-1548.5 46.5,-1548.5"/>
<text text-anchor="start" x="53.5" y="-1559.9" font-family="Arial" font-size="14.00" fill="#000000">issue_column </text>
<text text-anchor="start" x="142.96" y="-1559.9" font-family="Arial" font-size="14.00" fill="#666666">[TEXT]</text>
<polygon fill="none" stroke="#000000" points="46.5,-1518.5 46.5,-1548.5 359.5,-1548.5 359.5,-1518.5 46.5,-1518.5"/>
<text text-anchor="start" x="53.5" y="-1529.9" font-family="Arial" font-size="14.00" fill="#000000">invalid_value </text>
<text text-anchor="start" x="138.2952" y="-1529.9" font-family="Arial" font-size="14.00" fill="#666666">[TEXT]</text>
<polygon fill="none" stroke="#000000" points="46.5,-1488.5 46.5,-1518.5 359.5,-1518.5 359.5,-1488.5 46.5,-1488.5"/>
<text text-anchor="start" x="53.5" y="-1499.9" font-family="Arial" font-size="14.00" fill="#000000">remediation </text>
<text text-anchor="start" x="130.5112" y="-1499.9" font-family="Arial" font-size="14.00" fill="#666666">[TEXT]</text>
<polygon fill="none" stroke="#000000" points="46.5,-1458.5 46.5,-1488.5 359.5,-1488.5 359.5,-1458.5 46.5,-1458.5"/>
<text text-anchor="start" x="53.5" y="-1469.9" font-family="Arial" font-size="14.00" fill="#000000">elaboration </text>
<text text-anchor="start" x="126.6332" y="-1469.9" font-family="Arial" font-size="14.00" fill="#666666">[TEXT]</text>
<polygon fill="none" stroke="#000000" stroke-width="3" points="44.5,-1457.5 44.5,-1795.5 360.5,-1795.5 360.5,-1457.5 44.5,-1457.5"/>
</g>
<!-- orchestration_session -->
<g id="node2" class="node">
<title>orchestration_session</title>
<polygon fill="#efefef" stroke="transparent" points="552.5,-919.5 552.5,-954.5 831.5,-954.5 831.5,-919.5 552.5,-919.5"/>
<polygon fill="none" stroke="#000000" points="552.5,-919.5 552.5,-954.5 831.5,-954.5 831.5,-919.5 552.5,-919.5"/>
<text text-anchor="start" x="568.3149" y="-932.3" font-family="Arial Bold" font-size="18.00" fill="#000000">orchestration_session</text>
<text text-anchor="start" x="743.3541" y="-932.3" font-family="Arial" font-size="14.00" fill="#000000">    </text>
<text text-anchor="start" x="777.5589" y="-932.3" font-family="Arial" font-size="14.00" fill="#666666">[table]</text>
<polygon fill="none" stroke="#000000" points="552.5,-889.5 552.5,-919.5 831.5,-919.5 831.5,-889.5 552.5,-889.5"/>
<text text-anchor="start" x="559.3822" y="-900.9" font-family="Arial" font-size="14.00" fill="#000000">orchestration_session_id    </text>
<text text-anchor="start" x="748.4004" y="-900.9" font-family="Arial" font-size="14.00" fill="#666666">[VARCHAR]</text>
<polygon fill="none" stroke="#000000" points="552.5,-859.5 552.5,-889.5 831.5,-889.5 831.5,-859.5 552.5,-859.5"/>
<text text-anchor="start" x="559.5" y="-870.9" font-family="Arial" font-size="14.00" fill="#000000">device_id    </text>
<text text-anchor="start" x="652.831" y="-870.9" font-family="Arial" font-size="14.00" fill="#666666">[VARCHAR]</text>
<polygon fill="none" stroke="#000000" points="552.5,-829.5 552.5,-859.5 831.5,-859.5 831.5,-829.5 552.5,-829.5"/>
<text text-anchor="start" x="559.5" y="-840.9" font-family="Arial" font-size="14.00" fill="#000000">orchestration_nature_id    </text>
<text text-anchor="start" x="740.7454" y="-840.9" font-family="Arial" font-size="14.00" fill="#666666">[TEXT]</text>
<polygon fill="none" stroke="#000000" points="552.5,-799.5 552.5,-829.5 831.5,-829.5 831.5,-799.5 552.5,-799.5"/>
<text text-anchor="start" x="559.5" y="-810.9" font-family="Arial" font-size="14.00" fill="#000000">version    </text>
<text text-anchor="start" x="638.8198" y="-810.9" font-family="Arial" font-size="14.00" fill="#666666">[TEXT]</text>
<polygon fill="none" stroke="#000000" points="552.5,-769.5 552.5,-799.5 831.5,-799.5 831.5,-769.5 552.5,-769.5"/>
<text text-anchor="start" x="559.5" y="-780.9" font-family="Arial" font-size="14.00" fill="#000000">orch_started_at    </text>
<text text-anchor="start" x="690.9586" y="-780.9" font-family="Arial" font-size="14.00" fill="#666666">[TIMESTAMPTZ]</text>
<polygon fill="none" stroke="#000000" points="552.5,-739.5 552.5,-769.5 831.5,-769.5 831.5,-739.5 552.5,-739.5"/>
<text text-anchor="start" x="559.5" y="-750.9" font-family="Arial" font-size="14.00" fill="#000000">orch_finished_at    </text>
<text text-anchor="start" x="696.4032" y="-750.9" font-family="Arial" font-size="14.00" fill="#666666">[TIMESTAMPTZ]</text>
<polygon fill="none" stroke="#000000" points="552.5,-709.5 552.5,-739.5 831.5,-739.5 831.5,-709.5 552.5,-709.5"/>
<text text-anchor="start" x="559.5" y="-720.9" font-family="Arial" font-size="14.00" fill="#000000">elaboration    </text>
<text text-anchor="start" x="662.9474" y="-720.9" font-family="Arial" font-size="14.00" fill="#666666">[TEXT]</text>
<polygon fill="none" stroke="#000000" points="552.5,-679.5 552.5,-709.5 831.5,-709.5 831.5,-679.5 552.5,-679.5"/>
<text text-anchor="start" x="559.5" y="-690.9" font-family="Arial" font-size="14.00" fill="#000000">args_json    </text>
<text text-anchor="start" x="654.385" y="-690.9" font-family="Arial" font-size="14.00" fill="#666666">[TEXT]</text>
<polygon fill="none" stroke="#000000" points="552.5,-649.5 552.5,-679.5 831.5,-679.5 831.5,-649.5 552.5,-649.5"/>
<text text-anchor="start" x="559.5" y="-660.9" font-family="Arial" font-size="14.00" fill="#000000">diagnostics_json    </text>
<text text-anchor="start" x="697.176" y="-660.9" font-family="Arial" font-size="14.00" fill="#666666">[TEXT]</text>
<polygon fill="none" stroke="#000000" points="552.5,-619.5 552.5,-649.5 831.5,-649.5 831.5,-619.5 552.5,-619.5"/>
<text text-anchor="start" x="559.5" y="-630.9" font-family="Arial" font-size="14.00" fill="#000000">diagnostics_md    </text>
<text text-anchor="start" x="690.9474" y="-630.9" font-family="Arial" font-size="14.00" fill="#666666">[TEXT]</text>
</g>
<!-- orchestration_session_issue&#45;&gt;orchestration_session -->
<g id="edge1" class="edge">
<title>orchestration_session_issue:session_id&#45;&gt;orchestration_session:orchestration_session_id</title>
<path fill="none" stroke="#000000" d="M362.9586,-1703.8687C375.5746,-1622.281 358.3047,-1049.4968 366.5,-1034 413.5902,-944.9554 451.7706,-904.5 552.5,-904.5"/>
<polygon fill="#000000" stroke="#000000" points="362.8798,-1704.0884 355.2648,-1711.9791 361.1899,-1708.7942 359.5,-1713.5 359.5,-1713.5 359.5,-1713.5 361.1899,-1708.7942 363.7352,-1715.0209 362.8798,-1704.0884 362.8798,-1704.0884"/>
</g>
<!-- orchestration_session_entry -->
<g id="node3" class="node">
<title>orchestration_session_entry</title>
<polygon fill="#efefef" stroke="transparent" points="418.5,-1226.5 418.5,-1261.5 736.5,-1261.5 736.5,-1226.5 418.5,-1226.5"/>
<polygon fill="none" stroke="#000000" points="418.5,-1226.5 418.5,-1261.5 736.5,-1261.5 736.5,-1226.5 418.5,-1226.5"/>
<text text-anchor="start" x="428.8084" y="-1239.3" font-family="Arial Bold" font-size="18.00" fill="#000000">orchestration_session_entry</text>
<text text-anchor="start" x="653.8606" y="-1239.3" font-family="Arial" font-size="14.00" fill="#000000">    </text>
<text text-anchor="start" x="688.0654" y="-1239.3" font-family="Arial" font-size="14.00" fill="#666666">[table]</text>
<polygon fill="none" stroke="#000000" points="418.5,-1196.5 418.5,-1226.5 736.5,-1226.5 736.5,-1196.5 418.5,-1196.5"/>
<text text-anchor="start" x="425.4327" y="-1207.9" font-family="Arial" font-size="14.00" fill="#000000">orchestration_session_entry_id    </text>
<text text-anchor="start" x="653.3499" y="-1207.9" font-family="Arial" font-size="14.00" fill="#666666">[VARCHAR]</text>
<polygon fill="none" stroke="#000000" points="418.5,-1166.5 418.5,-1196.5 736.5,-1196.5 736.5,-1166.5 418.5,-1166.5"/>
<text text-anchor="start" x="425.5" y="-1177.9" font-family="Arial" font-size="14.00" fill="#000000">session_id    </text>
<text text-anchor="start" x="525.831" y="-1177.9" font-family="Arial" font-size="14.00" fill="#666666">[VARCHAR]</text>
<polygon fill="none" stroke="#000000" points="418.5,-1136.5 418.5,-1166.5 736.5,-1166.5 736.5,-1136.5 418.5,-1136.5"/>
<text text-anchor="start" x="425.5" y="-1147.9" font-family="Arial" font-size="14.00" fill="#000000">ingest_src    </text>
<text text-anchor="start" x="523.493" y="-1147.9" font-family="Arial" font-size="14.00" fill="#666666">[TEXT]</text>
<polygon fill="none" stroke="#000000" points="418.5,-1106.5 418.5,-1136.5 736.5,-1136.5 736.5,-1106.5 418.5,-1106.5"/>
<text text-anchor="start" x="425.5" y="-1117.9" font-family="Arial" font-size="14.00" fill="#000000">ingest_table_name    </text>
<text text-anchor="start" x="577.9684" y="-1117.9" font-family="Arial" font-size="14.00" fill="#666666">[TEXT]</text>
<polygon fill="none" stroke="#000000" points="418.5,-1076.5 418.5,-1106.5 736.5,-1106.5 736.5,-1076.5 418.5,-1076.5"/>
<text text-anchor="start" x="425.5" y="-1087.9" font-family="Arial" font-size="14.00" fill="#000000">elaboration    </text>
<text text-anchor="start" x="528.9474" y="-1087.9" font-family="Arial" font-size="14.00" fill="#666666">[TEXT]</text>
</g>
<!-- orchestration_session_issue&#45;&gt;orchestration_session_entry -->
<g id="edge7" class="edge">
<title>orchestration_session_issue:session_entry_id&#45;&gt;orchestration_session_entry:orchestration_session_entry_id</title>
<path fill="none" stroke="#000000" d="M369.4549,-1681.8835C455.088,-1651.7858 316.4078,-1211.5 418.5,-1211.5"/>
<polygon fill="#000000" stroke="#000000" points="369.3707,-1681.897 358.7787,-1679.0582 364.4354,-1682.6985 359.5,-1683.5 359.5,-1683.5 359.5,-1683.5 364.4354,-1682.6985 360.2213,-1687.9418 369.3707,-1681.897 369.3707,-1681.897"/>
</g>
<!-- device -->
<g id="node6" class="node">
<title>device</title>
<polygon fill="#efefef" stroke="transparent" points="409.5,-462.5 409.5,-497.5 633.5,-497.5 633.5,-462.5 409.5,-462.5"/>
<polygon fill="none" stroke="#000000" points="409.5,-462.5 409.5,-497.5 633.5,-497.5 633.5,-462.5 409.5,-462.5"/>
<text text-anchor="start" x="459.3281" y="-475.3" font-family="Arial Bold" font-size="18.00" fill="#000000">device</text>
<text text-anchor="start" x="511.3409" y="-475.3" font-family="Arial" font-size="14.00" fill="#000000">    </text>
<text text-anchor="start" x="545.5457" y="-475.3" font-family="Arial" font-size="14.00" fill="#666666">[table]</text>
<polygon fill="none" stroke="#000000" points="409.5,-432.5 409.5,-462.5 633.5,-462.5 633.5,-432.5 409.5,-432.5"/>
<text text-anchor="start" x="416.5" y="-443.9" font-family="Arial" font-size="14.00" fill="#000000">device_id    </text>
<text text-anchor="start" x="509.831" y="-443.9" font-family="Arial" font-size="14.00" fill="#666666">[VARCHAR]</text>
<polygon fill="none" stroke="#000000" points="409.5,-402.5 409.5,-432.5 633.5,-432.5 633.5,-402.5 409.5,-402.5"/>
<text text-anchor="start" x="416.5" y="-413.9" font-family="Arial" font-size="14.00" fill="#000000">name    </text>
<text text-anchor="start" x="485.7132" y="-413.9" font-family="Arial" font-size="14.00" fill="#666666">[TEXT]</text>
<polygon fill="none" stroke="#000000" points="409.5,-372.5 409.5,-402.5 633.5,-402.5 633.5,-372.5 409.5,-372.5"/>
<text text-anchor="start" x="416.5" y="-383.9" font-family="Arial" font-size="14.00" fill="#000000">state    </text>
<text text-anchor="start" x="481.0512" y="-383.9" font-family="Arial" font-size="14.00" fill="#666666">[TEXT]</text>
<polygon fill="none" stroke="#000000" points="409.5,-342.5 409.5,-372.5 633.5,-372.5 633.5,-342.5 409.5,-342.5"/>
<text text-anchor="start" x="416.5" y="-353.9" font-family="Arial" font-size="14.00" fill="#000000">boundary    </text>
<text text-anchor="start" x="509.061" y="-353.9" font-family="Arial" font-size="14.00" fill="#666666">[TEXT]</text>
<polygon fill="none" stroke="#000000" points="409.5,-312.5 409.5,-342.5 633.5,-342.5 633.5,-312.5 409.5,-312.5"/>
<text text-anchor="start" x="416.5" y="-323.9" font-family="Arial" font-size="14.00" fill="#000000">segmentation    </text>
<text text-anchor="start" x="534.7314" y="-323.9" font-family="Arial" font-size="14.00" fill="#666666">[TEXT]</text>
<polygon fill="none" stroke="#000000" points="409.5,-282.5 409.5,-312.5 633.5,-312.5 633.5,-282.5 409.5,-282.5"/>
<text text-anchor="start" x="416.5" y="-293.9" font-family="Arial" font-size="14.00" fill="#000000">state_sysinfo    </text>
<text text-anchor="start" x="532.3962" y="-293.9" font-family="Arial" font-size="14.00" fill="#666666">[TEXT]</text>
<polygon fill="none" stroke="#000000" points="409.5,-252.5 409.5,-282.5 633.5,-282.5 633.5,-252.5 409.5,-252.5"/>
<text text-anchor="start" x="416.5" y="-263.9" font-family="Arial" font-size="14.00" fill="#000000">elaboration    </text>
<text text-anchor="start" x="519.9474" y="-263.9" font-family="Arial" font-size="14.00" fill="#666666">[TEXT]</text>
<polygon fill="none" stroke="#000000" points="409.5,-222.5 409.5,-252.5 633.5,-252.5 633.5,-222.5 409.5,-222.5"/>
<text text-anchor="start" x="416.5" y="-233.9" font-family="Arial" font-size="14.00" fill="#000000">created_at    </text>
<text text-anchor="start" x="516.8422" y="-233.9" font-family="Arial" font-size="14.00" fill="#666666">[TIMESTAMPTZ]</text>
<polygon fill="none" stroke="#000000" points="409.5,-192.5 409.5,-222.5 633.5,-222.5 633.5,-192.5 409.5,-192.5"/>
<text text-anchor="start" x="416.5" y="-203.9" font-family="Arial" font-size="14.00" fill="#000000">created_by    </text>
<text text-anchor="start" x="519.9516" y="-203.9" font-family="Arial" font-size="14.00" fill="#666666">[TEXT]</text>
<polygon fill="none" stroke="#000000" points="409.5,-162.5 409.5,-192.5 633.5,-192.5 633.5,-162.5 409.5,-162.5"/>
<text text-anchor="start" x="416.1017" y="-173.9" font-family="Arial" font-size="14.00" fill="#000000">updated_at    </text>
<text text-anchor="start" x="520.3485" y="-173.9" font-family="Arial" font-size="14.00" fill="#666666">[TIMESTAMPTZ]</text>
<polygon fill="none" stroke="#000000" points="409.5,-132.5 409.5,-162.5 633.5,-162.5 633.5,-132.5 409.5,-132.5"/>
<text text-anchor="start" x="416.5" y="-143.9" font-family="Arial" font-size="14.00" fill="#000000">updated_by    </text>
<text text-anchor="start" x="523.8562" y="-143.9" font-family="Arial" font-size="14.00" fill="#666666">[TEXT]</text>
<polygon fill="none" stroke="#000000" points="409.5,-102.5 409.5,-132.5 633.5,-132.5 633.5,-102.5 409.5,-102.5"/>
<text text-anchor="start" x="416.5" y="-113.9" font-family="Arial" font-size="14.00" fill="#000000">deleted_at    </text>
<text text-anchor="start" x="516.0708" y="-113.9" font-family="Arial" font-size="14.00" fill="#666666">[TIMESTAMPTZ]</text>
<polygon fill="none" stroke="#000000" points="409.5,-72.5 409.5,-102.5 633.5,-102.5 633.5,-72.5 409.5,-72.5"/>
<text text-anchor="start" x="416.5" y="-83.9" font-family="Arial" font-size="14.00" fill="#000000">deleted_by    </text>
<text text-anchor="start" x="519.1802" y="-83.9" font-family="Arial" font-size="14.00" fill="#666666">[TEXT]</text>
<polygon fill="none" stroke="#000000" points="409.5,-42.5 409.5,-72.5 633.5,-72.5 633.5,-42.5 409.5,-42.5"/>
<text text-anchor="start" x="416.5" y="-53.9" font-family="Arial" font-size="14.00" fill="#000000">activity_log    </text>
<text text-anchor="start" x="519.9362" y="-53.9" font-family="Arial" font-size="14.00" fill="#666666">[TEXT]</text>
</g>
<!-- orchestration_session&#45;&gt;device -->
<g id="edge5" class="edge">
<title>orchestration_session:device_id&#45;&gt;device:device_id</title>
<path fill="none" stroke="#000000" d="M542.439,-874.1156C423.4592,-864.7107 482.3501,-684.944 552.5,-577 573.9671,-543.9672 612.0329,-574.0328 633.5,-541 656.1442,-506.156 675.0556,-447.5 633.5,-447.5"/>
<polygon fill="#000000" stroke="#000000" points="542.5073,-874.1181 552.3281,-878.9967 547.5036,-874.309 552.5,-874.5 552.5,-874.5 552.5,-874.5 547.5036,-874.309 552.6719,-870.0033 542.5073,-874.1181 542.5073,-874.1181"/>
</g>
<!-- orchestration_nature -->
<g id="node7" class="node">
<title>orchestration_nature</title>
<polygon fill="#efefef" stroke="transparent" points="738.5,-402.5 738.5,-437.5 989.5,-437.5 989.5,-402.5 738.5,-402.5"/>
<polygon fill="none" stroke="#000000" points="738.5,-402.5 738.5,-437.5 989.5,-437.5 989.5,-402.5 738.5,-402.5"/>
<text text-anchor="start" x="745.3117" y="-415.3" font-family="Arial Bold" font-size="18.00" fill="#000000">orchestration_nature</text>
<text text-anchor="start" x="910.3573" y="-415.3" font-family="Arial" font-size="14.00" fill="#000000">    </text>
<text text-anchor="start" x="944.5621" y="-415.3" font-family="Arial" font-size="14.00" fill="#666666">[table]</text>
<polygon fill="none" stroke="#000000" points="738.5,-372.5 738.5,-402.5 989.5,-402.5 989.5,-372.5 738.5,-372.5"/>
<text text-anchor="start" x="745.5" y="-383.9" font-family="Arial" font-size="14.00" fill="#000000">orchestration_nature_id    </text>
<text text-anchor="start" x="926.7454" y="-383.9" font-family="Arial" font-size="14.00" fill="#666666">[TEXT]</text>
<polygon fill="none" stroke="#000000" points="738.5,-342.5 738.5,-372.5 989.5,-372.5 989.5,-342.5 738.5,-342.5"/>
<text text-anchor="start" x="745.5" y="-353.9" font-family="Arial" font-size="14.00" fill="#000000">nature    </text>
<text text-anchor="start" x="819.3864" y="-353.9" font-family="Arial" font-size="14.00" fill="#666666">[TEXT]</text>
<polygon fill="none" stroke="#000000" points="738.5,-312.5 738.5,-342.5 989.5,-342.5 989.5,-312.5 738.5,-312.5"/>
<text text-anchor="start" x="745.5" y="-323.9" font-family="Arial" font-size="14.00" fill="#000000">elaboration    </text>
<text text-anchor="start" x="848.9474" y="-323.9" font-family="Arial" font-size="14.00" fill="#666666">[TEXT]</text>
<polygon fill="none" stroke="#000000" points="738.5,-282.5 738.5,-312.5 989.5,-312.5 989.5,-282.5 738.5,-282.5"/>
<text text-anchor="start" x="745.5" y="-293.9" font-family="Arial" font-size="14.00" fill="#000000">created_at    </text>
<text text-anchor="start" x="845.8422" y="-293.9" font-family="Arial" font-size="14.00" fill="#666666">[TIMESTAMPTZ]</text>
<polygon fill="none" stroke="#000000" points="738.5,-252.5 738.5,-282.5 989.5,-282.5 989.5,-252.5 738.5,-252.5"/>
<text text-anchor="start" x="745.5" y="-263.9" font-family="Arial" font-size="14.00" fill="#000000">created_by    </text>
<text text-anchor="start" x="848.9516" y="-263.9" font-family="Arial" font-size="14.00" fill="#666666">[TEXT]</text>
<polygon fill="none" stroke="#000000" points="738.5,-222.5 738.5,-252.5 989.5,-252.5 989.5,-222.5 738.5,-222.5"/>
<text text-anchor="start" x="745.5" y="-233.9" font-family="Arial" font-size="14.00" fill="#000000">updated_at    </text>
<text text-anchor="start" x="849.7468" y="-233.9" font-family="Arial" font-size="14.00" fill="#666666">[TIMESTAMPTZ]</text>
<polygon fill="none" stroke="#000000" points="738.5,-192.5 738.5,-222.5 989.5,-222.5 989.5,-192.5 738.5,-192.5"/>
<text text-anchor="start" x="745.5" y="-203.9" font-family="Arial" font-size="14.00" fill="#000000">updated_by    </text>
<text text-anchor="start" x="852.8562" y="-203.9" font-family="Arial" font-size="14.00" fill="#666666">[TEXT]</text>
<polygon fill="none" stroke="#000000" points="738.5,-162.5 738.5,-192.5 989.5,-192.5 989.5,-162.5 738.5,-162.5"/>
<text text-anchor="start" x="745.5" y="-173.9" font-family="Arial" font-size="14.00" fill="#000000">deleted_at    </text>
<text text-anchor="start" x="845.0708" y="-173.9" font-family="Arial" font-size="14.00" fill="#666666">[TIMESTAMPTZ]</text>
<polygon fill="none" stroke="#000000" points="738.5,-132.5 738.5,-162.5 989.5,-162.5 989.5,-132.5 738.5,-132.5"/>
<text text-anchor="start" x="745.5" y="-143.9" font-family="Arial" font-size="14.00" fill="#000000">deleted_by    </text>
<text text-anchor="start" x="848.1802" y="-143.9" font-family="Arial" font-size="14.00" fill="#666666">[TEXT]</text>
<polygon fill="none" stroke="#000000" points="738.5,-102.5 738.5,-132.5 989.5,-132.5 989.5,-102.5 738.5,-102.5"/>
<text text-anchor="start" x="745.5" y="-113.9" font-family="Arial" font-size="14.00" fill="#000000">activity_log    </text>
<text text-anchor="start" x="848.9362" y="-113.9" font-family="Arial" font-size="14.00" fill="#666666">[TEXT]</text>
</g>
<!-- orchestration_session&#45;&gt;orchestration_nature -->
<g id="edge6" class="edge">
<title>orchestration_session:orchestration_nature_id&#45;&gt;orchestration_nature:orchestration_nature_id</title>
<path fill="none" stroke="#000000" d="M841.7726,-844.0732C945.9195,-835.0189 874.7728,-683.8606 831.5,-577 809.2032,-521.9388 760.7968,-536.0612 738.5,-481 722.9026,-442.4827 696.9444,-387.5 738.5,-387.5"/>
<polygon fill="#000000" stroke="#000000" points="841.4914,-844.0848 831.3131,-840.0039 836.4957,-844.2924 831.5,-844.5 831.5,-844.5 831.5,-844.5 836.4957,-844.2924 831.6869,-848.9961 841.4914,-844.0848 841.4914,-844.0848"/>
</g>
<!-- orchestration_session_entry&#45;&gt;orchestration_session -->
<g id="edge2" class="edge">
<title>orchestration_session_entry:session_id&#45;&gt;orchestration_session:orchestration_session_id</title>
<path fill="none" stroke="#000000" d="M746.4644,-1180.6541C799.3896,-1171.041 775.8888,-1081.8421 736.5,-1034 683.5361,-969.6694 605.4639,-1062.3306 552.5,-998 526.0871,-965.9185 510.9444,-904.5 552.5,-904.5"/>
<polygon fill="#000000" stroke="#000000" points="746.4642,-1180.654 736.1193,-1177.0161 741.4821,-1181.077 736.5,-1181.5 736.5,-1181.5 736.5,-1181.5 741.4821,-1181.077 736.8807,-1185.9839 746.4642,-1180.654 746.4642,-1180.654"/>
</g>
<!-- orchestration_session_state -->
<g id="node4" class="node">
<title>orchestration_session_state</title>
<polygon fill="#efefef" stroke="transparent" points="466.5,-1743.5 466.5,-1778.5 783.5,-1778.5 783.5,-1743.5 466.5,-1743.5"/>
<polygon fill="none" stroke="#000000" points="466.5,-1743.5 466.5,-1778.5 783.5,-1778.5 783.5,-1743.5 466.5,-1743.5"/>
<text text-anchor="start" x="476.8034" y="-1756.3" font-family="Arial Bold" font-size="18.00" fill="#000000">orchestration_session_state</text>
<text text-anchor="start" x="700.8656" y="-1756.3" font-family="Arial" font-size="14.00" fill="#000000">    </text>
<text text-anchor="start" x="735.0704" y="-1756.3" font-family="Arial" font-size="14.00" fill="#666666">[table]</text>
<polygon fill="none" stroke="#000000" points="466.5,-1713.5 466.5,-1743.5 783.5,-1743.5 783.5,-1713.5 466.5,-1713.5"/>
<text text-anchor="start" x="473.3177" y="-1724.9" font-family="Arial" font-size="14.00" fill="#000000">orchestration_session_state_id    </text>
<text text-anchor="start" x="700.4649" y="-1724.9" font-family="Arial" font-size="14.00" fill="#666666">[VARCHAR]</text>
<polygon fill="none" stroke="#000000" points="466.5,-1683.5 466.5,-1713.5 783.5,-1713.5 783.5,-1683.5 466.5,-1683.5"/>
<text text-anchor="start" x="473.5" y="-1694.9" font-family="Arial" font-size="14.00" fill="#000000">session_id    </text>
<text text-anchor="start" x="573.831" y="-1694.9" font-family="Arial" font-size="14.00" fill="#666666">[VARCHAR]</text>
<polygon fill="none" stroke="#000000" points="466.5,-1653.5 466.5,-1683.5 783.5,-1683.5 783.5,-1653.5 466.5,-1653.5"/>
<text text-anchor="start" x="473.5" y="-1664.9" font-family="Arial" font-size="14.00" fill="#000000">session_entry_id    </text>
<text text-anchor="start" x="612.73" y="-1664.9" font-family="Arial" font-size="14.00" fill="#666666">[VARCHAR]</text>
<polygon fill="none" stroke="#000000" points="466.5,-1623.5 466.5,-1653.5 783.5,-1653.5 783.5,-1623.5 466.5,-1623.5"/>
<text text-anchor="start" x="473.5" y="-1634.9" font-family="Arial" font-size="14.00" fill="#000000">from_state    </text>
<text text-anchor="start" x="573.8282" y="-1634.9" font-family="Arial" font-size="14.00" fill="#666666">[TEXT]</text>
<polygon fill="none" stroke="#000000" points="466.5,-1593.5 466.5,-1623.5 783.5,-1623.5 783.5,-1593.5 466.5,-1593.5"/>
<text text-anchor="start" x="473.5" y="-1604.9" font-family="Arial" font-size="14.00" fill="#000000">to_state    </text>
<text text-anchor="start" x="557.507" y="-1604.9" font-family="Arial" font-size="14.00" fill="#666666">[TEXT]</text>
<polygon fill="none" stroke="#000000" points="466.5,-1563.5 466.5,-1593.5 783.5,-1593.5 783.5,-1563.5 466.5,-1563.5"/>
<text text-anchor="start" x="473.5" y="-1574.9" font-family="Arial" font-size="14.00" fill="#000000">transition_result    </text>
<text text-anchor="start" x="606.4958" y="-1574.9" font-family="Arial" font-size="14.00" fill="#666666">[TEXT]</text>
<polygon fill="none" stroke="#000000" points="466.5,-1533.5 466.5,-1563.5 783.5,-1563.5 783.5,-1533.5 466.5,-1533.5"/>
<text text-anchor="start" x="473.5" y="-1544.9" font-family="Arial" font-size="14.00" fill="#000000">transition_reason    </text>
<text text-anchor="start" x="615.0638" y="-1544.9" font-family="Arial" font-size="14.00" fill="#666666">[TEXT]</text>
<polygon fill="none" stroke="#000000" points="466.5,-1503.5 466.5,-1533.5 783.5,-1533.5 783.5,-1503.5 466.5,-1503.5"/>
<text text-anchor="start" x="473.5" y="-1514.9" font-family="Arial" font-size="14.00" fill="#000000">transitioned_at    </text>
<text text-anchor="start" x="599.5112" y="-1514.9" font-family="Arial" font-size="14.00" fill="#666666">[TIMESTAMPTZ]</text>
<polygon fill="none" stroke="#000000" points="466.5,-1473.5 466.5,-1503.5 783.5,-1503.5 783.5,-1473.5 466.5,-1473.5"/>
<text text-anchor="start" x="473.5" y="-1484.9" font-family="Arial" font-size="14.00" fill="#000000">elaboration    </text>
<text text-anchor="start" x="576.9474" y="-1484.9" font-family="Arial" font-size="14.00" fill="#666666">[TEXT]</text>
</g>
<!-- orchestration_session_state&#45;&gt;orchestration_session -->
<g id="edge3" class="edge">
<title>orchestration_session_state:session_id&#45;&gt;orchestration_session:orchestration_session_id</title>
<path fill="none" stroke="#000000" d="M787.9963,-1689.3084C811.4071,-1600.8985 852.1933,-904.5 831.5,-904.5"/>
<polygon fill="#000000" stroke="#000000" points="787.8942,-1689.5172 779.4577,-1696.5226 785.6971,-1694.0086 783.5,-1698.5 783.5,-1698.5 783.5,-1698.5 785.6971,-1694.0086 787.5423,-1700.4774 787.8942,-1689.5172 787.8942,-1689.5172"/>
</g>
<!-- orchestration_session_state&#45;&gt;orchestration_session_entry -->
<g id="edge8" class="edge">
<title>orchestration_session_state:session_entry_id&#45;&gt;orchestration_session_entry:orchestration_session_entry_id</title>
<path fill="none" stroke="#000000" d="M456.4868,-1665.7565C417.1766,-1642.0957 440.1425,-1472.3864 466.5,-1431 537.6347,-1319.3046 665.3653,-1416.6954 736.5,-1305 758.8226,-1269.9491 778.0556,-1211.5 736.5,-1211.5"/>
<polygon fill="#000000" stroke="#000000" points="456.8555,-1665.8574 465.3108,-1672.84 461.6777,-1667.1787 466.5,-1668.5 466.5,-1668.5 466.5,-1668.5 461.6777,-1667.1787 467.6892,-1664.16 456.8555,-1665.8574 456.8555,-1665.8574"/>
</g>
<!-- orchestration_session_exec -->
<g id="node5" class="node">
<title>orchestration_session_exec</title>
<polygon fill="#efefef" stroke="transparent" points="887.5,-1833.5 887.5,-1868.5 1203.5,-1868.5 1203.5,-1833.5 887.5,-1833.5"/>
<polygon fill="none" stroke="#000000" points="887.5,-1833.5 887.5,-1868.5 1203.5,-1868.5 1203.5,-1833.5 887.5,-1833.5"/>
<text text-anchor="start" x="897.8056" y="-1846.3" font-family="Arial Bold" font-size="18.00" fill="#000000">orchestration_session_exec</text>
<text text-anchor="start" x="1120.8634" y="-1846.3" font-family="Arial" font-size="14.00" fill="#000000">    </text>
<text text-anchor="start" x="1155.0682" y="-1846.3" font-family="Arial" font-size="14.00" fill="#666666">[table]</text>
<polygon fill="none" stroke="#000000" points="887.5,-1803.5 887.5,-1833.5 1203.5,-1833.5 1203.5,-1803.5 887.5,-1803.5"/>
<text text-anchor="start" x="894.2083" y="-1814.9" font-family="Arial" font-size="14.00" fill="#000000">orchestration_session_exec_id    </text>
<text text-anchor="start" x="1120.5743" y="-1814.9" font-family="Arial" font-size="14.00" fill="#666666">[VARCHAR]</text>
<polygon fill="none" stroke="#000000" points="887.5,-1773.5 887.5,-1803.5 1203.5,-1803.5 1203.5,-1773.5 887.5,-1773.5"/>
<text text-anchor="start" x="894.5" y="-1784.9" font-family="Arial" font-size="14.00" fill="#000000">exec_nature    </text>
<text text-anchor="start" x="1005.7342" y="-1784.9" font-family="Arial" font-size="14.00" fill="#666666">[TEXT]</text>
<polygon fill="none" stroke="#000000" points="887.5,-1743.5 887.5,-1773.5 1203.5,-1773.5 1203.5,-1743.5 887.5,-1743.5"/>
<text text-anchor="start" x="894.5" y="-1754.9" font-family="Arial" font-size="14.00" fill="#000000">session_id    </text>
<text text-anchor="start" x="994.831" y="-1754.9" font-family="Arial" font-size="14.00" fill="#666666">[VARCHAR]</text>
<polygon fill="none" stroke="#000000" points="887.5,-1713.5 887.5,-1743.5 1203.5,-1743.5 1203.5,-1713.5 887.5,-1713.5"/>
<text text-anchor="start" x="894.5" y="-1724.9" font-family="Arial" font-size="14.00" fill="#000000">session_entry_id    </text>
<text text-anchor="start" x="1033.73" y="-1724.9" font-family="Arial" font-size="14.00" fill="#666666">[VARCHAR]</text>
<polygon fill="none" stroke="#000000" points="887.5,-1683.5 887.5,-1713.5 1203.5,-1713.5 1203.5,-1683.5 887.5,-1683.5"/>
<text text-anchor="start" x="894.5" y="-1694.9" font-family="Arial" font-size="14.00" fill="#000000">parent_exec_id    </text>
<text text-anchor="start" x="1024.406" y="-1694.9" font-family="Arial" font-size="14.00" fill="#666666">[VARCHAR]</text>
<polygon fill="none" stroke="#000000" points="887.5,-1653.5 887.5,-1683.5 1203.5,-1683.5 1203.5,-1653.5 887.5,-1653.5"/>
<text text-anchor="start" x="894.5" y="-1664.9" font-family="Arial" font-size="14.00" fill="#000000">namespace    </text>
<text text-anchor="start" x="1001.061" y="-1664.9" font-family="Arial" font-size="14.00" fill="#666666">[TEXT]</text>
<polygon fill="none" stroke="#000000" points="887.5,-1623.5 887.5,-1653.5 1203.5,-1653.5 1203.5,-1623.5 887.5,-1623.5"/>
<text text-anchor="start" x="894.5" y="-1634.9" font-family="Arial" font-size="14.00" fill="#000000">exec_identity    </text>
<text text-anchor="start" x="1010.3948" y="-1634.9" font-family="Arial" font-size="14.00" fill="#666666">[TEXT]</text>
<polygon fill="none" stroke="#000000" points="887.5,-1593.5 887.5,-1623.5 1203.5,-1623.5 1203.5,-1593.5 887.5,-1593.5"/>
<text text-anchor="start" x="894.5" y="-1604.9" font-family="Arial" font-size="14.00" fill="#000000">exec_code    </text>
<text text-anchor="start" x="996.4004" y="-1604.9" font-family="Arial" font-size="14.00" fill="#666666">[TEXT]</text>
<polygon fill="none" stroke="#000000" points="887.5,-1563.5 887.5,-1593.5 1203.5,-1593.5 1203.5,-1563.5 887.5,-1563.5"/>
<text text-anchor="start" x="894.5" y="-1574.9" font-family="Arial" font-size="14.00" fill="#000000">exec_status    </text>
<text text-anchor="start" x="1003.399" y="-1574.9" font-family="Arial" font-size="14.00" fill="#666666">[INTEGER]</text>
<polygon fill="none" stroke="#000000" points="887.5,-1533.5 887.5,-1563.5 1203.5,-1563.5 1203.5,-1533.5 887.5,-1533.5"/>
<text text-anchor="start" x="894.5" y="-1544.9" font-family="Arial" font-size="14.00" fill="#000000">input_text    </text>
<text text-anchor="start" x="989.3962" y="-1544.9" font-family="Arial" font-size="14.00" fill="#666666">[TEXT]</text>
<polygon fill="none" stroke="#000000" points="887.5,-1503.5 887.5,-1533.5 1203.5,-1533.5 1203.5,-1503.5 887.5,-1503.5"/>
<text text-anchor="start" x="894.5" y="-1514.9" font-family="Arial" font-size="14.00" fill="#000000">exec_error_text    </text>
<text text-anchor="start" x="1025.946" y="-1514.9" font-family="Arial" font-size="14.00" fill="#666666">[TEXT]</text>
<polygon fill="none" stroke="#000000" points="887.5,-1473.5 887.5,-1503.5 1203.5,-1503.5 1203.5,-1473.5 887.5,-1473.5"/>
<text text-anchor="start" x="894.5" y="-1484.9" font-family="Arial" font-size="14.00" fill="#000000">output_text    </text>
<text text-anchor="start" x="997.9628" y="-1484.9" font-family="Arial" font-size="14.00" fill="#666666">[TEXT]</text>
<polygon fill="none" stroke="#000000" points="887.5,-1443.5 887.5,-1473.5 1203.5,-1473.5 1203.5,-1443.5 887.5,-1443.5"/>
<text text-anchor="start" x="894.5" y="-1454.9" font-family="Arial" font-size="14.00" fill="#000000">output_nature    </text>
<text text-anchor="start" x="1015.0806" y="-1454.9" font-family="Arial" font-size="14.00" fill="#666666">[TEXT]</text>
<polygon fill="none" stroke="#000000" points="887.5,-1413.5 887.5,-1443.5 1203.5,-1443.5 1203.5,-1413.5 887.5,-1413.5"/>
<text text-anchor="start" x="894.5" y="-1424.9" font-family="Arial" font-size="14.00" fill="#000000">narrative_md    </text>
<text text-anchor="start" x="1010.3794" y="-1424.9" font-family="Arial" font-size="14.00" fill="#666666">[TEXT]</text>
<polygon fill="none" stroke="#000000" points="887.5,-1383.5 887.5,-1413.5 1203.5,-1413.5 1203.5,-1383.5 887.5,-1383.5"/>
<text text-anchor="start" x="894.5" y="-1394.9" font-family="Arial" font-size="14.00" fill="#000000">elaboration    </text>
<text text-anchor="start" x="997.9474" y="-1394.9" font-family="Arial" font-size="14.00" fill="#666666">[TEXT]</text>
</g>
<!-- orchestration_session_exec&#45;&gt;orchestration_session -->
<g id="edge4" class="edge">
<title>orchestration_session_exec:session_id&#45;&gt;orchestration_session:orchestration_session_id</title>
<path fill="none" stroke="#000000" d="M877.8373,-1755.0591C802.0507,-1696.2932 923.0638,-904.5 831.5,-904.5"/>
<polygon fill="#000000" stroke="#000000" points="878.0795,-1755.1453 885.9904,-1762.7392 882.7897,-1756.8227 887.5,-1758.5 887.5,-1758.5 887.5,-1758.5 882.7897,-1756.8227 889.0096,-1754.2608 878.0795,-1755.1453 878.0795,-1755.1453"/>
</g>
<!-- orchestration_session_exec&#45;&gt;orchestration_session_entry -->
<g id="edge9" class="edge">
<title>orchestration_session_exec:session_entry_id&#45;&gt;orchestration_session_entry:orchestration_session_entry_id</title>
<path fill="none" stroke="#000000" d="M877.5654,-1726.9866C805.9233,-1703.6836 866.3321,-1418.0299 834.5,-1341 806.9337,-1274.293 808.6784,-1211.5 736.5,-1211.5"/>
<polygon fill="#000000" stroke="#000000" points="877.6141,-1726.9939 886.8223,-1732.9487 882.557,-1727.747 887.5,-1728.5 887.5,-1728.5 887.5,-1728.5 882.557,-1727.747 888.1777,-1724.0513 877.6141,-1726.9939 877.6141,-1726.9939"/>
</g>
</g>
</svg>
